<svg width="21" height="20" viewBox="0 0 21 20" fill="none" xmlns="http://www.w3.org/2000/svg">
<path fill-rule="evenodd" clip-rule="evenodd" d="M20.6001 17.2222C20.6001 18.7563 19.3564 20 17.8223 20H8.37788C7.55534 20 6.83718 19.5531 6.45295 18.8889H2.82232C1.59502 18.8889 0.600098 17.894 0.600098 16.6667V3.33333C0.600098 2.10603 1.59502 1.11111 2.82232 1.11111H6.45295C6.83718 0.446887 7.55534 0 8.37788 0H17.8223C19.3564 0 20.6001 1.24365 20.6001 2.77778V17.2222ZM8.37788 1.11111H17.8223C18.7428 1.11111 19.489 1.8573 19.489 2.77778V17.2222C19.489 18.1427 18.7428 18.8889 17.8223 18.8889H8.37788C7.76423 18.8889 7.26676 18.3914 7.26676 17.7778C7.26676 17.1641 7.76423 16.6667 8.37788 16.6667H16.1557V3.33333H8.37788C7.76423 3.33333 7.26676 2.83587 7.26676 2.22222C7.26676 1.60857 7.76423 1.11111 8.37788 1.11111ZM15.0445 4.44444V15.5556H8.37788C7.15058 15.5556 6.15565 16.5505 6.15565 17.7778H2.82232C2.20867 17.7778 1.71121 17.2803 1.71121 16.6667V3.33333C1.71121 2.71968 2.20867 2.22222 2.82232 2.22222H6.15565C6.15565 3.44952 7.15058 4.44444 8.37788 4.44444H15.0445Z" fill="#5BB4FF"/>
<path fill-rule="evenodd" clip-rule="evenodd" d="M19.1636 1.73611L16.1557 4.11901L15.37 3.33333L18.3779 0.950437L19.1636 1.73611Z" fill="#5BB4FF"/>
<path fill-rule="evenodd" clip-rule="evenodd" d="M16.1557 15.881L19.1636 18.2639L18.3779 19.0496L15.37 16.6667L16.1557 15.881Z" fill="#5BB4FF"/>
</svg>
