<svg width="21" height="20" viewBox="0 0 21 20" fill="none" xmlns="http://www.w3.org/2000/svg">
<path fill-rule="evenodd" clip-rule="evenodd" d="M20.8 17.2222C20.8 18.7563 19.5564 20 18.0223 20H8.57783C7.75529 20 7.03713 19.5531 6.6529 18.8889H3.02227C1.79497 18.8889 0.800049 17.894 0.800049 16.6667V3.33333C0.800049 2.10603 1.79497 1.11111 3.02227 1.11111H6.6529C7.03713 0.446887 7.75529 0 8.57783 0H18.0223C19.5564 0 20.8 1.24365 20.8 2.77778V17.2222ZM8.57783 1.11111H18.0223C18.9427 1.11111 19.6889 1.8573 19.6889 2.77778V17.2222C19.6889 18.1427 18.9427 18.8889 18.0223 18.8889H8.57783C7.96418 18.8889 7.46672 18.3914 7.46672 17.7778C7.46672 17.1641 7.96418 16.6667 8.57783 16.6667H16.3556V3.33333H8.57783C7.96418 3.33333 7.46672 2.83587 7.46672 2.22222C7.46672 1.60857 7.96418 1.11111 8.57783 1.11111ZM15.2445 4.44444V15.5556H8.57783C7.35053 15.5556 6.3556 16.5505 6.3556 17.7778H3.02227C2.40862 17.7778 1.91116 17.2803 1.91116 16.6667V3.33333C1.91116 2.71968 2.40862 2.22222 3.02227 2.22222H6.3556C6.3556 3.44952 7.35053 4.44444 8.57783 4.44444H15.2445Z" fill="#E5E5EA"/>
<path fill-rule="evenodd" clip-rule="evenodd" d="M19.3635 1.73611L16.3556 4.11901L15.5699 3.33333L18.5778 0.950437L19.3635 1.73611Z" fill="#E5E5EA"/>
<path fill-rule="evenodd" clip-rule="evenodd" d="M16.3556 15.881L19.3635 18.2639L18.5778 19.0496L15.5699 16.6667L16.3556 15.881Z" fill="#E5E5EA"/>
</svg>
