<svg width="21" height="20" viewBox="0 0 21 20" fill="none" xmlns="http://www.w3.org/2000/svg">
<path fill-rule="evenodd" clip-rule="evenodd" d="M20.2002 17.2222C20.2002 18.7563 18.9565 20 17.4224 20H7.97797C7.15544 20 6.43728 19.5531 6.05305 18.8889H2.42242C1.19512 18.8889 0.200195 17.894 0.200195 16.6667V3.33333C0.200195 2.10603 1.19512 1.11111 2.42242 1.11111H6.05304C6.43728 0.446887 7.15544 0 7.97797 0H17.4224C18.9565 0 20.2002 1.24365 20.2002 2.77778V17.2222ZM7.97797 1.11111H17.4224C18.3429 1.11111 19.0891 1.8573 19.0891 2.77778V17.2222C19.0891 18.1427 18.3429 18.8889 17.4224 18.8889H7.97797C7.36432 18.8889 6.86686 18.3914 6.86686 17.7778C6.86686 17.1641 7.36432 16.6667 7.97797 16.6667H15.7558V3.33333H7.97797C7.36432 3.33333 6.86686 2.83587 6.86686 2.22222C6.86686 1.60857 7.36432 1.11111 7.97797 1.11111ZM14.6446 4.44444V15.5556H7.97797C6.75067 15.5556 5.75575 16.5505 5.75575 17.7778H2.42242C1.80877 17.7778 1.31131 17.2803 1.31131 16.6667V3.33333C1.31131 2.71968 1.80877 2.22222 2.42242 2.22222H5.75575C5.75575 3.44952 6.75067 4.44444 7.97797 4.44444H14.6446Z" fill="#EB950E"/>
<path fill-rule="evenodd" clip-rule="evenodd" d="M18.7636 1.73611L15.7558 4.11901L14.9701 3.33333L17.978 0.950437L18.7636 1.73611Z" fill="#EB950E"/>
<path fill-rule="evenodd" clip-rule="evenodd" d="M15.7558 15.881L18.7636 18.2639L17.978 19.0496L14.9701 16.6667L15.7558 15.881Z" fill="#EB950E"/>
</svg>
