<svg width="22" height="19" viewBox="0 0 22 19" fill="none" xmlns="http://www.w3.org/2000/svg">
<path d="M11.8946 0.0112305H10.5842C12.9297 0.134885 15.1391 1.15041 16.7602 2.84989C18.3814 4.54937 19.2916 6.80425 19.3045 9.15289C19.3174 11.5015 18.432 13.7663 16.8296 15.4835C15.2273 17.2007 13.0291 18.2404 10.6852 18.3898H11.898C14.3351 18.3898 16.6724 17.4217 18.3958 15.6983C20.1191 13.975 21.0872 11.6377 21.0872 9.20052C21.0872 6.76337 20.1191 4.42604 18.3958 2.70271C16.6724 0.979385 14.3351 0.0112305 11.898 0.0112305H11.8946Z" fill="#E1AA00"/>
<path d="M14.9888 1.40467H16.7367C16.4246 1.20842 16.1009 1.03121 15.7674 0.874023H14.0195C14.3529 1.03152 14.6765 1.20872 14.9888 1.40467Z" fill="#B88700"/>
<path d="M18.967 6.71229H20.6924C20.6419 6.53279 20.5858 6.35553 20.5253 6.18164H18.7998C18.8615 6.35553 18.9165 6.53279 18.967 6.71229Z" fill="#B88700"/>
<path d="M17.7316 4.05555H19.4694C19.3471 3.87381 19.2181 3.69543 19.0835 3.5249H17.3457C17.4826 3.70104 17.6127 3.8839 17.7316 4.05555Z" fill="#B88700"/>
<path d="M14.438 17.3251H16.1713C16.4723 17.1647 16.7641 16.9875 17.0452 16.7944H15.3097C15.0291 16.9872 14.7381 17.1643 14.438 17.3251Z" fill="#B88700"/>
<path d="M21.0389 8.83374H19.3135C19.3135 8.95715 19.3236 9.08168 19.3236 9.20508V9.36439H21.049V9.2006C21.0389 9.07831 21.0389 8.95602 21.0389 8.83374Z" fill="#B88700"/>
<path d="M18.8716 12.0187H20.597C20.6531 11.8448 20.7092 11.6675 20.7496 11.488H19.0253C18.9804 11.6675 18.9277 11.8448 18.8716 12.0187Z" fill="#B88700"/>
<path d="M17.5085 14.6708H19.2475C19.3742 14.498 19.4965 14.3208 19.6109 14.1401H17.8788C17.7565 14.323 17.6364 14.5003 17.5085 14.6708Z" fill="#B88700"/>
<path d="M10.214 17.968C15.1113 17.968 19.0813 13.998 19.0813 9.10071C19.0813 4.20343 15.1113 0.233398 10.214 0.233398C5.31671 0.233398 1.34668 4.20343 1.34668 9.10071C1.34668 13.998 5.31671 17.968 10.214 17.968Z" fill="url(#paint0_linear_316_4)"/>
<path opacity="0.3" d="M10.0178 0.537428C11.9293 0.539169 13.7853 1.18044 15.2902 2.35911C16.7951 3.53779 17.8624 5.18609 18.322 7.04154C18.7817 8.89699 18.6073 10.8529 17.8267 12.5978C17.046 14.3426 15.704 15.7762 14.0144 16.67C12.3247 17.5639 10.3846 17.8668 8.50287 17.5303C6.62117 17.1939 4.90614 16.2376 3.63089 14.8136C2.35563 13.3896 1.59349 11.5799 1.46582 9.67263C1.33816 7.76536 1.85231 5.87022 2.9264 4.28899C3.71222 3.13214 4.76942 2.18536 6.00559 1.53139C7.24176 0.877416 8.61929 0.536154 10.0178 0.537428ZM10.0178 0.233399C7.89544 0.232368 5.84319 0.992972 4.23415 2.37693C2.62511 3.76088 1.56611 5.67629 1.2497 7.77491C0.933293 9.87354 1.38048 12.016 2.50995 13.8129C3.63943 15.6097 5.3762 16.9416 7.4045 17.5663C9.43281 18.1911 11.618 18.0673 13.5627 17.2174C15.5074 16.3674 17.0826 14.8479 18.0019 12.9349C18.9211 11.022 19.1234 8.8427 18.5719 6.79325C18.0204 4.74381 16.7518 2.96031 14.9967 1.767C13.5282 0.768552 11.7936 0.234262 10.0178 0.233399Z" fill="url(#paint1_linear_316_4)"/>
<path d="M10.1086 18.41C8.28799 18.41 6.5083 17.8701 4.99454 16.8587C3.48079 15.8472 2.30096 14.4096 1.60426 12.7276C0.907553 11.0456 0.725263 9.19479 1.08044 7.4092C1.43562 5.6236 2.31231 3.98343 3.59965 2.69609C4.88699 1.40874 6.52717 0.532053 8.31276 0.176876C10.0984 -0.178301 11.9492 0.00398807 13.6312 0.700693C15.3132 1.3974 16.7508 2.57722 17.7622 4.09098C18.7737 5.60473 19.3136 7.38443 19.3136 9.205C19.3136 11.6463 18.3438 13.9876 16.6175 15.7139C14.8912 17.4402 12.5499 18.41 10.1086 18.41ZM10.1086 0.465583C8.38007 0.465583 6.6904 0.978141 5.25321 1.93844C3.81602 2.89874 2.69586 4.26365 2.0344 5.86057C1.37293 7.45749 1.19986 9.2147 1.53707 10.91C1.87429 12.6053 2.70663 14.1625 3.92886 15.3847C5.15109 16.6069 6.70831 17.4393 8.40359 17.7765C10.0989 18.1137 11.8561 17.9406 13.453 17.2792C15.0499 16.6177 16.4148 15.4976 17.3751 14.0604C18.3354 12.6232 18.848 10.9335 18.848 9.205C18.848 8.05733 18.6219 6.92089 18.1827 5.86057C17.7435 4.80026 17.0998 3.83683 16.2883 3.0253C15.4767 2.21377 14.5133 1.57003 13.453 1.13083C12.3927 0.691635 11.2562 0.465583 10.1086 0.465583Z" fill="url(#paint2_linear_316_4)"/>
<path d="M11.7273 13.3671C11.6647 13.4286 11.5806 13.4632 11.4929 13.4636C11.388 13.4642 11.284 13.4441 11.1869 13.4044C11.0898 13.3647 11.0015 13.3062 10.9271 13.2323C10.8527 13.1584 10.7936 13.0705 10.7532 12.9737C10.7128 12.8769 10.692 12.7731 10.6918 12.6682V10.2909H12.0516C12.2664 10.2909 12.4724 10.2056 12.6243 10.0537C12.7762 9.9018 12.8615 9.69577 12.8615 9.48095C12.8615 9.26612 12.7762 9.0601 12.6243 8.90819C12.4724 8.75629 12.2664 8.67095 12.0516 8.67095H10.6907V7.02067H12.0516C12.2664 7.02067 12.4724 6.93533 12.6243 6.78343C12.7762 6.63153 12.8615 6.4255 12.8615 6.21068C12.8615 5.99585 12.7762 5.78983 12.6243 5.63793C12.4724 5.48602 12.2664 5.40068 12.0516 5.40068H10.6907V3.88278C10.6907 3.66989 10.6061 3.46572 10.4556 3.31519C10.3051 3.16465 10.1009 3.08008 9.88801 3.08008C9.67512 3.08008 9.47095 3.16465 9.32041 3.31519C9.16988 3.46572 9.08531 3.66989 9.08531 3.88278V5.40293H7.74579C7.53096 5.40293 7.32494 5.48827 7.17304 5.64017C7.02113 5.79207 6.93579 5.9981 6.93579 6.21292C6.93579 6.42775 7.02113 6.63377 7.17304 6.78567C7.32494 6.93758 7.53096 7.02291 7.74579 7.02291H9.08643V8.66759H7.74579C7.53096 8.66759 7.32494 8.75293 7.17304 8.90483C7.02113 9.05673 6.93579 9.26276 6.93579 9.47758C6.93579 9.69241 7.02113 9.89843 7.17304 10.0503C7.32494 10.2022 7.53096 10.2876 7.74579 10.2876H9.08643V12.6536C9.08643 13.2948 9.34069 13.9099 9.79347 14.3639C10.2463 14.818 10.8606 15.074 11.5018 15.0757C11.7579 15.0756 12.0115 15.0247 12.2478 14.9259C12.484 14.8271 12.6984 14.6824 12.8784 14.5002C12.9544 14.4249 13.0148 14.3353 13.056 14.2365C13.0973 14.1377 13.1185 14.0317 13.1185 13.9247C13.1185 13.8176 13.0973 13.7116 13.0561 13.6128C13.0149 13.514 12.9545 13.4244 12.8784 13.3491C12.8024 13.2737 12.7121 13.2143 12.6129 13.174C12.5137 13.1338 12.4076 13.1136 12.3005 13.1147C12.1935 13.1157 12.0877 13.138 11.9893 13.1802C11.8909 13.2223 11.8019 13.2836 11.7273 13.3604V13.3671Z" fill="#704B00"/>
<defs>
<linearGradient id="paint0_linear_316_4" x1="10.214" y1="17.968" x2="10.214" y2="0.233398" gradientUnits="userSpaceOnUse">
<stop offset="0.02" stop-color="#FCB900"/>
<stop offset="1" stop-color="#FCCA04"/>
</linearGradient>
<linearGradient id="paint1_linear_316_4" x1="5.03256" y1="16.4169" x2="14.9944" y2="1.75779" gradientUnits="userSpaceOnUse">
<stop offset="0.02" stop-color="#603813"/>
<stop offset="0.58" stop-color="#C69C6D"/>
<stop offset="1" stop-color="#C69C6D" stop-opacity="0"/>
</linearGradient>
<linearGradient id="paint2_linear_316_4" x1="7.71527" y1="46.43" x2="26.1253" y2="46.43" gradientUnits="userSpaceOnUse">
<stop stop-color="#FCD847"/>
<stop offset="1" stop-color="#A47E1B"/>
</linearGradient>
</defs>
</svg>
