<svg width="20" height="20" viewBox="0 0 20 20" fill="none" xmlns="http://www.w3.org/2000/svg">
<path fill-rule="evenodd" clip-rule="evenodd" d="M20 17.2222C20 18.7563 18.7563 20 17.2222 20H7.77778C6.95524 20 6.23708 19.5531 5.85285 18.8889H2.22222C0.994923 18.8889 0 17.894 0 16.6667V3.33333C0 2.10603 0.994923 1.11111 2.22222 1.11111H5.85285C6.23708 0.446887 6.95524 0 7.77778 0H17.2222C18.7563 0 20 1.24365 20 2.77778V17.2222ZM7.77778 1.11111H17.2222C18.1427 1.11111 18.8889 1.8573 18.8889 2.77778V17.2222C18.8889 18.1427 18.1427 18.8889 17.2222 18.8889H7.77778C7.16413 18.8889 6.66667 18.3914 6.66667 17.7778C6.66667 17.1641 7.16413 16.6667 7.77778 16.6667H15.5556V3.33333H7.77778C7.16413 3.33333 6.66667 2.83587 6.66667 2.22222C6.66667 1.60857 7.16413 1.11111 7.77778 1.11111ZM14.4444 4.44444V15.5556H7.77778C6.55048 15.5556 5.55556 16.5505 5.55556 17.7778H2.22222C1.60857 17.7778 1.11111 17.2803 1.11111 16.6667V3.33333C1.11111 2.71968 1.60857 2.22222 2.22222 2.22222H5.55556C5.55556 3.44952 6.55048 4.44444 7.77778 4.44444H14.4444Z" fill="#DB6848"/>
<path fill-rule="evenodd" clip-rule="evenodd" d="M18.5635 1.73611L15.5556 4.11901L14.7699 3.33333L17.7778 0.950437L18.5635 1.73611Z" fill="#DB6848"/>
<path fill-rule="evenodd" clip-rule="evenodd" d="M15.5556 15.881L18.5635 18.2639L17.7778 19.0496L14.7699 16.6667L15.5556 15.881Z" fill="#DB6848"/>
</svg>
